<?xml version="1.0" encoding="UTF-8" standalone="no"?>
<svg
   xmlns:dc="http://purl.org/dc/elements/1.1/"
   xmlns:cc="http://creativecommons.org/ns#"
   xmlns:rdf="http://www.w3.org/1999/02/22-rdf-syntax-ns#"
   xmlns:svg="http://www.w3.org/2000/svg"
   xmlns="http://www.w3.org/2000/svg"
   viewBox="0 0 264.56668 151.18134"
   height="151.18134"
   width="264.56668"
   xml:space="preserve"
   id="svg2"
   version="1.1"><metadata
     id="metadata8"><rdf:RDF><cc:Work
         rdf:about=""><dc:format>image/svg+xml</dc:format><dc:type
           rdf:resource="http://purl.org/dc/dcmitype/StillImage" /></cc:Work></rdf:RDF></metadata><defs
     id="defs6"><clipPath
       id="clipPath18"
       clipPathUnits="userSpaceOnUse"><path
         id="path16"
         d="M 0,113.386 H 198.425 V 0 H 0 Z" /></clipPath></defs><g
     transform="matrix(1.3333333,0,0,-1.3333333,0,151.18133)"
     id="g10"><g
       id="g12"><g
         clip-path="url(#clipPath18)"
         id="g14"><g
           transform="translate(166.1767,100.9362)"
           id="g20"><path
             id="path22"
             style="fill:#2a2922;fill-opacity:1;fill-rule:nonzero;stroke:none"
             d="m 0,0 c -1.601,0.508 -3.198,1.029 -4.804,1.522 -1.573,0.483 -3.152,1.335 -4.733,1.345 -22.873,0.144 -45.747,0.165 -68.62,0.247 -1.668,0.006 -2.919,-0.185 -3.54,-2.111 -0.525,-1.633 -1.962,-1.724 -3.635,-1.537 -9.502,1.062 -19.01,2.088 -28.565,0.363 -1.871,-0.337 -2.965,-1.334 -3.996,-2.772 -6.797,-9.481 -13.594,-18.961 -20.497,-28.364 -2.466,-3.358 -5.21,-6.513 -7.86,-9.734 -2.124,-2.582 -2.481,-5.613 -2.129,-8.746 0.072,-0.639 1.061,-1.186 1.648,-1.755 0.786,-0.763 2.095,-1.429 2.225,-2.283 0.099,-0.651 -1.321,-1.497 -2.001,-2.311 -2.309,-2.761 -4.627,-5.517 -6.796,-8.384 -0.149,-0.197 0.751,-1.529 1.409,-1.935 3.178,-1.961 3.208,-1.913 1.978,-5.275 -2.098,-5.731 0.809,-12.362 6.29,-14.353 5.997,-2.178 12.636,0.898 14.759,6.84 1.31,3.664 1.31,3.679 5.184,3.632 9.733,-0.118 19.466,-0.288 29.2,-0.351 2.306,-0.015 4.617,0.281 6.92,0.496 0.599,0.056 1.424,0.164 1.721,0.563 1.575,2.124 3.805,1.664 5.924,1.698 5.174,0.084 10.35,0.121 15.523,0.266 2.08,0.058 3.437,-0.514 4.257,-2.655 1.157,-3.019 3.531,-4.91 6.512,-6.232 1.179,-0.523 2.372,-1.7 2.906,-2.875 2.713,-5.965 9.001,-8.688 15.017,-6.291 5.729,2.283 8.435,8.538 6.297,14.552 -1.085,3.049 -0.608,3.68 2.638,3.729 2.777,0.042 5.551,0.233 8.328,0.269 1.391,0.018 1.878,0.622 1.931,1.966 0.098,2.465 0.227,4.94 0.557,7.381 0.197,1.464 -0.154,3.567 2.317,3.567 2.731,-0.001 3.945,-1.245 4.326,-3.778 0.296,-1.969 0.887,-3.895 1.388,-5.829 0.086,-0.331 0.379,-0.609 1.078,-0.876 0.145,1.942 0.451,3.888 0.398,5.825 -0.077,2.852 1.177,5.105 2.553,7.453 0.949,1.619 2.4,1.531 3.23,0.855 0.573,-0.467 0.636,-2.636 0.069,-3.25 -3.306,-3.576 -2.053,-7.822 -2.178,-11.886 -0.038,-1.228 0.032,-2.811 -0.667,-3.548 -0.496,-0.523 -2.214,0.028 -3.364,0.227 -3.81,0.657 -4.817,3.646 -5.706,6.84 -0.171,-1.941 -0.433,-3.879 -0.488,-5.822 -0.055,-1.942 -0.997,-2.816 -2.853,-2.878 -0.077,-0.003 -0.154,-0.004 -0.231,-0.009 -5.022,-0.314 -5.021,-0.314 -3.766,-5.326 0.13,-0.522 0.404,-1.081 0.314,-1.568 -0.14,-0.758 -0.347,-1.727 -0.883,-2.115 -0.415,-0.302 -1.484,-0.039 -2.067,0.305 -0.904,0.533 -1.642,1.349 -2.585,2.162 -0.285,-0.931 -0.496,-1.737 -0.778,-2.517 -2.072,-5.746 -6.076,-9.333 -12.172,-9.998 -6.682,-0.729 -11.845,1.932 -15.368,7.776 -0.699,1.159 -1.947,1.992 -2.957,2.959 -2.2,2.106 -4.374,4.242 -6.637,6.279 -0.72,0.647 -1.678,1.425 -2.544,1.446 -5.019,0.119 -10.044,0.036 -15.067,0.001 -0.529,-0.003 -1.22,0.053 -1.562,-0.239 -3.103,-2.645 -6.955,-2.394 -10.552,-2.458 -9.733,-0.172 -19.472,-0.038 -29.207,0.104 -2.091,0.03 -3.264,-0.446 -4.217,-2.525 -2.971,-6.484 -10.268,-9.847 -16.943,-8.135 -6.766,1.735 -11.488,8.126 -11.214,15.177 0.012,0.309 -0.043,0.649 0.067,0.921 1.078,2.675 0.704,4.651 -2.073,6.237 -1.798,1.027 -1.68,3.078 -0.567,4.732 1.678,2.497 3.58,4.844 5.252,7.344 0.408,0.61 0.623,1.702 0.365,2.347 -1.73,4.322 -1.265,8.503 0.832,12.473 1.071,2.027 2.653,3.788 4.035,5.646 8.344,11.214 17.085,22.16 24.858,33.755 3.206,4.782 7.44,5.338 11.805,5.483 7.688,0.256 15.407,-0.439 23.114,-0.661 0.725,-0.021 1.876,0.288 2.127,0.793 1.176,2.366 3.222,2.702 5.461,2.698 8.268,-0.014 16.536,-0.039 24.804,-0.096 9.347,-0.063 18.694,-0.178 28.042,-0.245 5.949,-0.042 11.899,-0.038 17.849,-0.051 0.618,-0.002 1.236,0.011 1.854,0.026 1.182,0.029 2.915,0.573 3.442,0.001 C -1.533,4.918 -0.544,2.852 0.64,0.966 0.427,0.644 0.213,0.322 0,0" /></g><path
           id="path24"
           style="fill:#2a2922;fill-opacity:1;fill-rule:nonzero;stroke:none"
           d="m 50.601,54.071 h 5.217 v -1.43 h -5.217 z" /><g
           transform="translate(65.4423,53.0049)"
           id="g26"><path
             id="path28"
             style="fill:#2a2922;fill-opacity:1;fill-rule:nonzero;stroke:none"
             d="m 0,0 c 0,0.096 -0.051,0.179 -0.153,0.249 -0.101,0.07 -0.222,0.105 -0.363,0.105 h -0.523 v -0.713 h 0.523 c 0.141,0 0.262,0.035 0.363,0.105 C -0.051,-0.184 0,-0.1 0,0 m -1.039,1.783 h 0.523 c 0.141,0 0.262,0.035 0.363,0.105 C -0.051,1.957 0,2.042 0,2.142 V 3.571 C 0,3.668 -0.048,3.751 -0.145,3.82 -0.247,3.89 -0.368,3.925 -0.509,3.925 H -0.523 -1.039 Z M 2.085,2.117 C 2.075,1.728 1.901,1.38 1.562,1.071 1.901,0.759 2.075,0.408 2.085,0.02 V -0.025 C 2.075,-0.51 1.818,-0.925 1.315,-1.27 0.811,-1.612 0.206,-1.785 -0.502,-1.788 h -2.622 v 7.142 h 2.608 C 0.196,5.354 0.806,5.182 1.315,4.836 1.823,4.491 2.08,4.073 2.085,3.581 V 2.162 Z" /></g><g
           transform="translate(72.8516,54.0758)"
           id="g30"><path
             id="path32"
             style="fill:#2a2922;fill-opacity:1;fill-rule:nonzero;stroke:none"
             d="m 0,0 v 2.645 c 0,0.099 -0.051,0.184 -0.153,0.254 -0.101,0.07 -0.222,0.104 -0.363,0.104 -0.146,0 -0.269,-0.034 -0.371,-0.104 C -0.988,2.829 -1.039,2.744 -1.039,2.645 V 0 Z M -0.516,4.433 C 0.201,4.433 0.814,4.259 1.322,3.91 1.831,3.561 2.085,3.14 2.085,2.645 V -2.859 H 0 v 1.429 h -1.039 v -1.429 h -2.085 v 5.504 c 0,0.495 0.254,0.916 0.763,1.265 0.508,0.349 1.123,0.523 1.845,0.523" /></g><g
           transform="translate(82.3533,52.9701)"
           id="g34"><path
             id="path36"
             style="fill:#2a2922;fill-opacity:1;fill-rule:nonzero;stroke:none"
             d="m 0,0 0.363,-1.758 h -2.085 l -0.356,1.723 -0.014,0.065 c -0.02,0.1 -0.088,0.184 -0.204,0.254 -0.116,0.07 -0.245,0.105 -0.385,0.105 h -0.451 v -2.147 h -2.085 v 7.147 h 2.085 V 1.818 h 0.298 c 0.146,0 0.277,0.035 0.392,0.105 0.117,0.069 0.185,0.152 0.204,0.249 l 0.661,3.217 H 0.509 L -0.153,2.167 C -0.23,1.798 -0.453,1.463 -0.821,1.161 -0.366,0.832 -0.095,0.456 -0.007,0.035 Z" /></g><g
           transform="translate(86.9294,56.9299)"
           id="g38"><path
             id="path40"
             style="fill:#2a2922;fill-opacity:1;fill-rule:nonzero;stroke:none"
             d="M 0,0 V -2.142 H 2.085 V -3.571 H 0 V -4.289 H 2.499 V -5.718 H -2.085 V 1.43 H 2.499 V 0 Z" /></g><g
           transform="translate(94.1938,54.7831)"
           id="g42"><path
             id="path44"
             style="fill:#2a2922;fill-opacity:1;fill-rule:nonzero;stroke:none"
             d="M 0,0 C 0.145,0.003 0.269,0.038 0.37,0.105 0.472,0.174 0.523,0.259 0.523,0.359 V 1.788 C 0.523,1.884 0.472,1.967 0.37,2.037 0.269,2.107 0.145,2.142 0,2.142 H -0.516 V 0 Z M 2.957,-3.566 H 0.879 L 0.523,-1.848 0.516,-1.783 C 0.491,-1.684 0.421,-1.599 0.305,-1.529 0.189,-1.459 0.06,-1.425 -0.08,-1.425 H -0.516 V -3.566 H -2.601 V 3.571 H 0.014 C 0.726,3.568 1.337,3.394 1.845,3.048 2.349,2.703 2.601,2.284 2.601,1.793 V 0.354 c 0,-0.442 -0.211,-0.829 -0.632,-1.161 0.343,-0.292 0.552,-0.614 0.625,-0.966 l 0.007,-0.04 z" /></g><g
           transform="translate(104.2475,58.3544)"
           id="g46"><path
             id="path48"
             style="fill:#2a2922;fill-opacity:1;fill-rule:nonzero;stroke:none"
             d="M 0,0 V -3.213 C 0,-3.571 -0.143,-3.898 -0.428,-4.194 -0.705,-4.483 -1.075,-4.699 -1.54,-4.841 v -2.297 h -2.078 v 2.287 c -0.475,0.136 -0.855,0.35 -1.141,0.642 -0.295,0.302 -0.443,0.634 -0.443,0.996 V 0 h 2.085 v -3.213 c 0,-0.099 0.051,-0.184 0.153,-0.254 0.101,-0.069 0.223,-0.104 0.363,-0.104 0.145,0 0.269,0.035 0.37,0.104 0.102,0.07 0.153,0.155 0.153,0.254 V 0 Z" /></g><g
           transform="translate(113.4064,58.5038)"
           id="g50"><path
             id="path52"
             style="fill:#2a2922;fill-opacity:1;fill-rule:nonzero;stroke:none"
             d="m 0,0 c 0.698,-0.017 1.291,-0.198 1.78,-0.543 0.484,-0.345 0.727,-0.759 0.727,-1.24 V -2.515 H 0.429 v 0.732 c 0,0.096 -0.051,0.179 -0.153,0.249 -0.102,0.07 -0.225,0.104 -0.37,0.104 -0.127,0 -0.235,-0.026 -0.327,-0.079 -0.015,-0.007 -0.027,-0.015 -0.037,-0.025 h -0.007 c -0.01,-0.007 -0.019,-0.015 -0.029,-0.025 h -0.007 c -0.01,-0.01 -0.017,-0.018 -0.022,-0.025 V -1.589 H -0.53 c -0.01,-0.01 -0.017,-0.018 -0.022,-0.025 0.005,0.003 0.005,0.002 0,-0.005 -0.01,-0.01 -0.017,-0.018 -0.022,-0.025 l -0.007,-0.015 -0.007,-0.02 -0.007,-0.019 -0.008,-0.015 c 0,-0.004 -0.002,-0.01 -0.007,-0.02 v -0.015 -0.035 -1.579 c 0,-0.1 0.051,-0.184 0.152,-0.254 0.102,-0.067 0.223,-0.1 0.364,-0.1 L 0,-3.721 c 0.698,-0.016 1.291,-0.197 1.78,-0.543 0.484,-0.345 0.727,-0.759 0.727,-1.24 0,-0.491 -0.252,-0.911 -0.756,-1.26 -0.509,-0.349 -1.124,-0.523 -1.845,-0.523 h -2.602 v 1.429 h 2.602 c 0.145,0 0.268,0.035 0.37,0.105 0.102,0.07 0.153,0.153 0.153,0.249 0,0.1 -0.051,0.184 -0.153,0.254 -0.102,0.07 -0.225,0.105 -0.37,0.105 h -0.102 c -0.693,0.02 -1.281,0.201 -1.766,0.543 -0.484,0.345 -0.729,0.757 -0.734,1.235 v 1.589 c 0.005,0.491 0.259,0.91 0.763,1.255 0.504,0.345 1.114,0.52 1.832,0.523 z" /></g><path
           id="path54"
           style="fill:#2a2922;fill-opacity:1;fill-rule:nonzero;stroke:none"
           d="m 120.017,51.212 h -2.085 v 7.148 h 2.085 z" /><g
           transform="translate(127.5209,58.3544)"
           id="g56"><path
             id="path58"
             style="fill:#2a2922;fill-opacity:1;fill-rule:nonzero;stroke:none"
             d="m 0,0 v -7.133 h -2.078 v 2.516 l -1.046,1.673 V -7.133 H -5.202 V 0 h 2.078 v -0.035 l 1.046,-1.673 V 0 Z" /></g><g
           transform="translate(134.9012,53.5678)"
           id="g60"><path
             id="path62"
             style="fill:#2a2922;fill-opacity:1;fill-rule:nonzero;stroke:none"
             d="M 0,0 V -0.722 C -0.005,-1.214 -0.262,-1.634 -0.77,-1.982 -1.279,-2.328 -1.889,-2.5 -2.601,-2.5 c -0.717,0 -1.33,0.172 -1.838,0.518 -0.509,0.345 -0.766,0.762 -0.771,1.25 v 3.905 c 0.005,0.488 0.262,0.905 0.771,1.25 0.508,0.345 1.121,0.518 1.838,0.518 0.712,0 1.322,-0.173 1.831,-0.518 C -0.262,4.074 -0.005,3.654 0,3.163 V 2.441 h -2.085 v 0.717 c 0,0.096 -0.051,0.179 -0.153,0.249 -0.102,0.07 -0.223,0.105 -0.363,0.105 -0.146,0 -0.269,-0.035 -0.371,-0.105 -0.102,-0.07 -0.152,-0.153 -0.152,-0.249 v -3.87 c 0,-0.1 0.05,-0.185 0.152,-0.254 0.102,-0.07 0.225,-0.105 0.371,-0.105 0.14,0 0.261,0.035 0.363,0.105 0.102,0.069 0.153,0.154 0.153,0.254 V 0 Z" /></g><g
           transform="translate(139.0557,56.9299)"
           id="g64"><path
             id="path66"
             style="fill:#2a2922;fill-opacity:1;fill-rule:nonzero;stroke:none"
             d="M 0,0 V -2.142 H 2.085 V -3.571 H 0 V -4.289 H 2.499 V -5.718 H -2.085 V 1.43 H 2.499 V 0 Z" /></g><g
           transform="translate(150.8015,51.2168)"
           id="g68"><path
             id="path70"
             style="fill:#2a2922;fill-opacity:1;fill-rule:nonzero;stroke:none"
             d="m 0,0 h -2.078 v 5.509 c 0,0.096 -0.051,0.179 -0.153,0.249 -0.101,0.07 -0.225,0.105 -0.37,0.105 h -0.095 v 1.429 h 0.102 C -1.877,7.289 -1.267,7.114 -0.763,6.769 -0.254,6.424 0,6.005 0,5.514 Z" /></g><g
           transform="translate(156.1256,54.7881)"
           id="g72"><path
             id="path74"
             style="fill:#2a2922;fill-opacity:1;fill-rule:nonzero;stroke:none"
             d="m 0,0 v 1.938 c 0,0.096 -0.051,0.179 -0.153,0.249 -0.101,0.069 -0.225,0.104 -0.37,0.104 -0.141,0 -0.262,-0.035 -0.364,-0.104 C -0.988,2.117 -1.039,2.034 -1.039,1.938 V 0.359 c 0,-0.1 0.051,-0.185 0.152,-0.254 C -0.785,0.035 -0.661,0 -0.516,0 Z m 0,-1.43 h -0.53 c -0.717,0.004 -1.327,0.178 -1.831,0.523 -0.504,0.349 -0.758,0.768 -0.763,1.256 v 1.589 c 0,0.491 0.254,0.911 0.763,1.26 0.508,0.348 1.121,0.523 1.838,0.523 0.721,0 1.337,-0.175 1.845,-0.523 C 1.831,2.849 2.085,2.429 2.085,1.938 V -1.793 C 2.08,-2.285 1.826,-2.703 1.322,-3.048 0.819,-3.394 0.208,-3.568 -0.508,-3.571 h -2.616 v 1.429 h 2.608 c 0.141,0 0.262,0.035 0.363,0.105 C -0.051,-1.967 0,-1.883 0,-1.783 Z" /></g><g
           transform="translate(165.7509,58.3594)"
           id="g76"><path
             id="path78"
             style="fill:#2a2922;fill-opacity:1;fill-rule:nonzero;stroke:none"
             d="M 0,0 -3.182,-7.143 H -5.34 l 2.55,5.713 H -5.224 V 0 Z" /></g><g
           transform="translate(170.0653,52.4969)"
           id="g80"><path
             id="path82"
             style="fill:#2a2922;fill-opacity:1;fill-rule:nonzero;stroke:none"
             d="M 0,0 C 0.145,0 0.269,0.035 0.37,0.105 0.472,0.174 0.523,0.309 0.523,0.508 0.523,0.604 0.472,0.687 0.37,0.757 0.269,0.827 0.148,0.862 0.007,0.862 H 0 c -0.141,0 -0.262,-0.035 -0.363,-0.105 -0.102,-0.07 -0.153,-0.154 -0.153,-0.254 0,-0.196 0.051,-0.329 0.153,-0.398 C -0.262,0.035 -0.141,0 0,0 m -0.516,2.65 c 0,-0.1 0.051,-0.184 0.153,-0.254 C -0.262,2.326 -0.141,2.291 0,2.291 h 0.007 c 0.141,0 0.262,0.035 0.363,0.105 0.102,0.07 0.153,0.154 0.153,0.254 V 4.229 C 0.523,4.325 0.472,4.408 0.37,4.478 0.269,4.548 0.145,4.582 0,4.582 -0.141,4.582 -0.262,4.548 -0.363,4.478 -0.465,4.408 -0.516,4.325 -0.516,4.229 Z M -2.601,0.284 v 0.294 c 0.024,0.372 0.198,0.705 0.523,1.001 -0.349,0.315 -0.523,0.672 -0.523,1.071 v 1.579 c 0,0.491 0.254,0.911 0.763,1.26 C -1.33,5.838 -0.717,6.012 0,6.012 0.722,6.012 1.337,5.838 1.845,5.489 2.354,5.14 2.608,4.72 2.608,4.229 V 2.65 C 2.608,2.251 2.434,1.894 2.085,1.579 2.409,1.283 2.584,0.95 2.608,0.578 V 0.284 C 2.579,-0.194 2.313,-0.6 1.809,-0.931 1.305,-1.264 0.702,-1.43 0,-1.43 c -0.698,0 -1.298,0.166 -1.802,0.499 -0.504,0.331 -0.77,0.737 -0.799,1.215" /></g><path
           id="path84"
           style="fill:#2a2922;fill-opacity:1;fill-rule:nonzero;stroke:none"
           d="m 179.18,54.071 h 5.217 v -1.43 h -5.217 z" /><g
           transform="translate(184.6898,95.4729)"
           id="g86"><path
             id="path88"
             style="fill:#2a2922;fill-opacity:1;fill-rule:nonzero;stroke:none"
             d="m 0,0 -3.12,2.999 c -0.109,0.105 -0.256,0.164 -0.408,0.164 h -2.274 c -0.244,0 -0.462,-0.15 -0.55,-0.378 -0.087,-0.227 -0.025,-0.485 0.156,-0.648 0.671,-0.605 1.229,-1.105 1.672,-1.501 0.442,-0.396 0.999,-0.895 1.669,-1.498 0.108,-0.098 0.248,-0.151 0.394,-0.151 h 2.053 c 0.24,0 0.456,0.146 0.546,0.368 C 0.228,-0.422 0.173,-0.167 0,0" /></g><g
           transform="translate(101.0541,78.3867)"
           id="g90"><path
             id="path92"
             style="fill:#2a2922;fill-opacity:1;fill-rule:nonzero;stroke:none"
             d="m 0,0 c 0.62,0.78 0.386,1.529 0.392,2.22 0.028,3.183 -0.003,6.366 0.019,9.548 0.013,2.023 0.233,2.246 2.238,2.284 4.876,0.09 4.054,-0.147 4.07,-3.906 0.03,-6.872 0.016,-13.744 0.005,-20.616 -0.004,-2.297 -0.157,-2.432 -2.487,-2.464 -1.012,-0.014 -2.029,0.051 -3.037,-0.014 -1.45,-0.094 -2.272,0.579 -2.791,1.888 -1.197,3.021 -2.447,6.022 -3.706,9.019 -0.41,0.976 -0.696,2.034 -1.537,2.913 -0.554,-0.517 -0.406,-1.122 -0.408,-1.654 -0.017,-3.255 0.007,-6.51 -0.015,-9.765 -0.015,-2.131 -0.25,-2.343 -2.377,-2.388 -4.168,-0.09 -4.188,-0.071 -4.188,4.169 -0.001,6.439 -0.002,12.877 10e-4,19.315 0,0.65 -10e-4,1.303 0.056,1.95 0.081,0.921 0.619,1.483 1.54,1.509 1.661,0.047 3.327,0.057 4.988,0.003 0.996,-0.032 1.453,-0.751 1.806,-1.622 1.41,-3.481 2.864,-6.944 4.312,-10.41 C -0.846,1.325 -0.713,0.588 0,0" /></g><g
           transform="translate(149.0483,79.1094)"
           id="g94"><path
             id="path96"
             style="fill:#2a2922;fill-opacity:1;fill-rule:nonzero;stroke:none"
             d="m 0,0 c 0,-1.572 0,-3.144 0,-4.716 -0.001,-2.386 0.029,-4.773 -0.016,-7.158 -0.026,-1.372 -0.321,-1.673 -1.639,-1.761 -1.008,-0.067 -2.028,-0.067 -3.035,0.004 -1.289,0.092 -1.559,0.414 -1.623,1.787 -0.04,0.866 -0.011,1.735 -0.011,2.603 -0.001,6.652 -0.006,13.305 0.002,19.958 0.003,2.448 0.15,2.587 2.561,2.616 0.94,0.012 1.884,-0.055 2.819,0.014 1.515,0.112 2.426,-0.523 2.979,-1.939 1.157,-2.958 2.399,-5.883 3.615,-8.819 0.459,-1.11 0.858,-2.255 1.643,-3.4 0.486,0.685 0.356,1.263 0.358,1.795 0.015,3.254 -0.004,6.508 0.012,9.762 0.011,2.237 0.29,2.513 2.454,2.587 4.012,0.138 4.117,0.036 4.117,-4.005 10e-4,-6.798 0.008,-13.595 -0.004,-20.392 -0.004,-2.404 -0.185,-2.567 -2.607,-2.591 -1.157,-0.012 -2.315,0.018 -3.471,-0.005 -1.166,-0.024 -1.864,0.514 -2.293,1.596 -1.304,3.288 -2.644,6.563 -4.01,9.826 C 1.502,-1.404 1.285,-0.46 0.528,0.136 0.352,0.091 0.176,0.045 0,0" /></g><g
           transform="translate(183.6023,81.4568)"
           id="g98"><path
             id="path100"
             style="fill:#2a2922;fill-opacity:1;fill-rule:nonzero;stroke:none"
             d="M 0,0 C 0,0.575 0.012,1.151 -0.002,1.726 -0.056,3.993 -1.401,5.069 -3.651,4.651 -5.35,4.336 -5.872,3.78 -5.931,2.079 -5.975,0.786 -5.972,-0.511 -5.939,-1.804 -5.894,-3.556 -5.704,-3.761 -3.901,-3.791 0.668,-3.868 -0.051,-3.773 0,0 m 6.312,-4.858 c 0,-3.035 0.02,-6.069 -0.008,-9.103 -0.017,-1.743 -0.26,-1.952 -2.022,-2.041 -0.073,-0.004 -0.145,-0.003 -0.217,-0.003 -3.817,0.013 -4.233,-0.387 -4.086,3.733 0.06,1.677 -0.211,1.916 -1.85,1.934 -4.306,0.048 -4.202,0.275 -4.101,-3.638 0.044,-1.687 -0.332,-1.964 -2.059,-2.025 -0.794,-0.027 -1.591,-0.036 -2.384,0.007 -1.607,0.089 -2.089,0.479 -2.077,2.121 0.045,6.279 -0.334,12.569 0.316,18.834 0.313,3.013 1.929,5.112 4.858,6.016 2.675,0.826 5.421,0.847 8.121,0.14 3.534,-0.925 5.359,-3.212 5.466,-6.873 0.088,-3.032 0.018,-6.068 0.018,-9.102 0.008,0 0.016,0 0.025,0" /></g><g
           transform="translate(128.3495,81.3782)"
           id="g102"><path
             id="path104"
             style="fill:#2a2922;fill-opacity:1;fill-rule:nonzero;stroke:none"
             d="M 0,0 C 0,0.72 0.057,1.445 -0.011,2.158 -0.187,4.001 -1.138,4.813 -3.011,4.8 -5.049,4.786 -6.035,3.988 -6.181,2.097 -6.27,0.952 -6.229,-0.206 -6.209,-1.357 -6.173,-3.45 -5.935,-3.673 -3.818,-3.723 0.024,-3.812 0.024,-3.812 0,0 m 6.342,-5.176 c 0,-2.82 0.018,-5.64 -0.006,-8.46 -0.016,-1.995 -0.272,-2.27 -2.246,-2.283 -3.997,-0.027 -4.295,-0.287 -4.1,3.694 0.079,1.603 -0.322,1.88 -1.881,1.977 -0.144,0.009 -0.289,0.007 -0.434,0.003 -3.188,-0.071 -4.092,0.713 -3.912,-3.703 0.067,-1.637 -0.251,-1.881 -1.856,-1.966 -0.865,-0.046 -1.737,-0.049 -2.602,10e-4 -1.436,0.082 -1.779,0.403 -1.821,1.84 -0.052,1.806 -0.017,3.615 -0.017,5.423 0.002,3.687 0.005,7.375 0.008,11.063 0.001,0.941 0.145,1.86 0.287,2.792 0.535,3.536 2.571,5.525 6.028,6.166 2.01,0.373 4.044,0.418 6.034,0.037 4.242,-0.812 6.297,-3.243 6.469,-7.691 0.115,-2.96 0.022,-5.928 0.022,-8.893 0.009,0 0.018,0 0.027,0" /></g><g
           transform="translate(53.2932,73.9827)"
           id="g106"><path
             id="path108"
             style="fill:#2a2922;fill-opacity:1;fill-rule:nonzero;stroke:none"
             d="m 0,0 c -0.01,0 -0.019,0 -0.029,0 0,1.077 0.108,2.167 -0.028,3.226 -0.163,1.276 -1.26,1.134 -2.19,1.176 -0.939,0.041 -1.525,-0.28 -1.521,-1.327 0.008,-2.011 -0.042,-4.023 0.01,-6.032 0.033,-1.318 0.242,-1.457 1.557,-1.493 1.512,-0.042 2.08,0.283 2.183,1.436 C 0.07,-2.017 0,-1.005 0,0 M -3.517,8.457 C -2.173,8.576 -0.736,8.408 0.673,8.089 2.545,7.664 3.738,6.477 4.043,4.572 4.538,1.489 4.504,-1.613 4.039,-4.697 3.758,-6.564 2.488,-7.783 0.646,-8.174 c -2.285,-0.485 -4.6,-0.373 -6.904,-0.31 -1.315,0.036 -1.597,0.365 -1.607,1.762 -0.032,4.477 -0.032,8.955 0.001,13.432 0.01,1.386 0.285,1.641 1.639,1.735 0.862,0.061 1.732,0.012 2.708,0.012" /></g><g
           transform="translate(69.8698,75.5775)"
           id="g110"><path
             id="path112"
             style="fill:#2a2922;fill-opacity:1;fill-rule:nonzero;stroke:none"
             d="m 0,0 c 0,0.288 0.015,0.578 -0.002,0.865 -0.091,1.507 -0.47,1.928 -1.727,1.934 -1.241,0.006 -1.664,-0.444 -1.747,-1.907 -0.032,-0.575 -0.032,-1.155 -0.002,-1.73 0.079,-1.466 0.29,-1.678 1.61,-1.715 1.481,-0.04 1.767,0.215 1.864,1.688 C 0.015,-0.578 -0.001,-0.288 0,0 m -7.531,-2.786 c 0,1.736 -0.047,3.474 0.011,5.208 0.09,2.675 1.406,4.072 3.998,4.592 1.385,0.279 2.723,0.251 4.07,-0.076 C 2.573,6.445 3.926,5.044 3.984,2.99 4.095,-0.913 4.031,-4.822 4.055,-8.728 c 0.005,-0.894 -0.412,-1.28 -1.289,-1.378 -2.05,-0.229 -2.568,0.108 -2.746,2.18 -0.09,1.052 -0.445,1.596 -1.569,1.589 -1.249,-0.007 -1.918,-0.414 -1.974,-1.699 -0.082,-1.887 -1.447,-2.63 -3.254,-1.996 -0.702,0.246 -0.764,0.787 -0.765,1.386 -0.002,1.953 -0.001,3.907 -0.001,5.86 0.004,0 0.008,0 0.012,0" /></g></g></g></g></svg>